<svg xmlns="http://www.w3.org/2000/svg" viewBox="0 0 960 360"><path d="M367.4 25L302.7 5c-1.1-.3-2.2-.3-3.3 0l-61.5 20.8c-1.2.4-2.2 1.2-2.9 2.3l-49.6 82.5-49.6-82.5c-.6-1.1-1.7-1.9-2.9-2.3L71.6 5c-1.1-.4-2.2-.4-3.3 0L3.7 25c-2.2.7-3.6 2.6-3.7 4.9v284.6c0 1.9 1 3.7 2.7 4.6L64 354.6c.8.5 1.7.7 2.7.7s2.1-.3 3-.9l52.1-35.5c1.5-1 2.3-2.6 2.3-4.4v-40.2l22.2 40.2c.9 1.7 2.7 2.8 4.7 2.8h69.5c1.9 0 3.7-1.1 4.7-2.8l22-40.2v40.2c0 1.8.9 3.4 2.3 4.4l52.1 35.5c1.7 1.1 3.9 1.2 5.7.2l61.3-35.5c1.6-1 2.7-2.7 2.7-4.6l.1-284.6c-.3-2.3-1.8-4.3-4-4.9zM65 54.1l.1.2 119 198.6c.3.5.9.9 1.5.9s1.2-.3 1.5-.9l119-198.6.1-.2L364 31v280.7l-57.7 33.4v-187c0-.8-.5-1.5-1.3-1.7h-.4c-.6 0-1.2.3-1.6.9l-.2.4-83.4 150.8H152L68.4 157.6l-.2-.4c-.3-.6-.9-.9-1.6-.9h-.4c-.8.2-1.3.9-1.3 1.7v187.1L7.1 311.8V31.1l57.9 23zm51.9 257.7l-48.5 33.1v-180l48.5 87.5v59.4zm137.3-59.4l48.5-87.5v179.9l-48.5-33.1v-59.3zm-66.6-133.1l52.9-87.9 61.4 22.3.3.1L225.4 182l-37.8-62.7zm35.6 66l-37.7 63.3L68.9 53.8l.3-.1 61.4-22.3 92.6 153.9zm81.4-134.4l-59.5-21.6 56.1-19 59.3 18.3-55.9 22.3zm-294-22.3l59.3-18.3 56.1 19-59.5 21.6-55.9-22.3zm454.2 17.6V100h-9.7V46.2h-14.4v-9h38.4v9h-14.3zM525.5 62h26.9V37.1h9.6v62.8h-9.6V71h-26.9v28.9h-9.6V37.1h9.6V62zm113.3-15.8h-25v15.9h24.3v9h-24.3v19.8h25v9h-34.7V37.1h34.7v9.1zm-178.3 99.2c8.8 0 16.4.9 23.4 6.1 7.6 5.7 12.1 14.9 12.1 25.3 0 10.5-4.3 19.5-12.6 25.3-7.3 5.2-14.2 6-23 6h-13v-62.8l13.1.1zm-3.6 53.8h4.1c4.7 0 11.2-.4 16.7-4.4 4.3-3.3 8.6-9.3 8.6-17.9 0-8.3-4-14.8-8.5-18.1-5.5-4-12.1-4.3-16.8-4.3h-4.1v44.7zm88.9-53.8v62.8h-9.6v-62.8h9.6zm75.8 30.2h25.9v.5c0 10.7-3.2 19.5-9.3 25.4-6.5 6.3-14.2 8-21.4 8-9.1 0-15.6-2.6-21.4-8.6-6.1-6.3-9.3-14.7-9.3-23.7 0-9.8 4-18.3 9.1-23.4 5.4-5.5 13.9-9.4 23.6-9.4 5.7 0 11.5 1.2 16.4 4 5.2 2.9 8.4 6.6 10.2 9.4l-7.6 5.4c-1.9-2.6-4.7-5.5-7.7-7.2-3.5-2.1-7.3-2.7-11.1-2.7-8.2 0-13.5 3.4-16.6 6.5-4.1 4.1-6.7 10.8-6.7 17.6 0 6.3 2.4 12.6 6.5 17 4.3 4.6 9.7 6.3 15.7 6.3 5.5 0 10-1.6 14-5.6 3.5-3.4 4.9-7.1 5.3-10.6h-15.6v-8.9zm75.8-30.2v62.8h-9.6v-62.8h9.6zm60.7 9.1v53.8h-9.6v-53.8h-14.4v-9h38.4v9h-14.4zm81.9 38.6h-26.8l-6.9 15.2h-10.4l31.3-66.5 29.8 66.5h-10.4l-6.6-15.2zm-3.8-9.1l-9.3-21.3-9.7 21.3h19zm64.2-38.6v53.8h18.5v9h-28.1v-62.8h9.6zm-455 171.1l13.2-67.5 21.8 48.8 22-48.8 11.9 67.5h-9.8l-6.4-37.9-18.3 40.8-18.1-40.9-6.6 37.9h-9.7v.1zm145.4-15.1H564l-6.9 15.2h-10.4l31.3-66.5 29.8 66.5h-10.4l-6.6-15.2zm-3.8-9.1l-9.3-21.3-9.7 21.3h19zm67.8 15.2h30.1v9h-45.8l30.9-53.8h-25.8v-9h41.4l-30.8 53.8zM759 262.8h-25v15.9h24.3v9H734v19.8h25v9h-34.7v-62.8H759v9.1z" fill="#fff"/></svg>